<?xml version="1.0" encoding="utf-8"?>
<!-- Generator: Adobe Illustrator 17.0.0, SVG Export Plug-In . SVG Version: 6.00 Build 0)  -->
<!DOCTYPE svg PUBLIC "-//W3C//DTD SVG 1.1//EN" "http://www.w3.org/Graphics/SVG/1.1/DTD/svg11.dtd">
<svg version="1.1" id="Capa_1" xmlns="http://www.w3.org/2000/svg" xmlns:xlink="http://www.w3.org/1999/xlink" x="0px" y="0px"
	 width="595.28px" height="841.89px" viewBox="0 0 595.28 841.89" enable-background="new 0 0 595.28 841.89" xml:space="preserve">
<g>
	<path fill="#25C2CE" d="M552.761,479.068c0,97.593-80.097,176.714-178.894,176.714c-69.455,0-129.673-39.107-159.308-96.245
		c-12.509-24.136-19.577-51.484-19.577-80.469c0-38.933,12.748-74.909,34.347-104.111c22.63-30.623,55.006-53.77,92.617-65.025
		v-74.868h103.853v74.868c37.609,11.255,69.976,34.401,92.617,65.025C540.012,404.159,552.761,440.136,552.761,479.068z"/>
	<path fill="#19A2A5" d="M348.879,235.065v82.992c0,0-92.241,64.87-70.362,210.045c6.411,42.547-21.41,46.758-63.961,31.436
		c-12.509-24.136-19.577-51.484-19.577-80.47c0-38.933,12.748-74.909,34.347-104.111c22.63-30.623,55.006-53.77,92.617-65.025
		v-74.868H348.879z"/>
	<path fill="#1F3B63" d="M552.761,479.068c0,97.593-80.097,176.714-178.894,176.714c-69.455,0-129.673-39.107-159.308-96.245
		c-0.334-0.638-0.657-1.287-0.98-1.935c-0.302-0.587-0.594-1.173-0.886-1.771c-0.031-0.072-0.073-0.144-0.105-0.217
		c-0.302-0.618-0.605-1.246-0.897-1.874c-0.302-0.649-0.605-1.297-0.907-1.956c-0.365-0.792-0.72-1.586-1.063-2.378
		c-0.479-1.092-0.949-2.182-1.407-3.274c-0.594-1.421-1.167-2.852-1.709-4.283c-0.198-0.515-0.396-1.019-0.584-1.535
		c-0.376-1.009-0.75-2.018-1.105-3.027c-0.323-0.917-0.636-1.822-0.938-2.75c-0.334-0.968-0.646-1.946-0.949-2.925
		c-0.208-0.638-0.407-1.287-0.605-1.935c-0.021-0.083-0.052-0.164-0.073-0.257c-0.156-0.515-0.313-1.03-0.458-1.545
		c-0.166-0.577-0.334-1.154-0.49-1.73c-0.24-0.834-0.458-1.668-0.678-2.502c-0.187-0.69-0.365-1.369-0.531-2.059
		c-0.073-0.298-0.145-0.598-0.219-0.896c-0.177-0.7-0.334-1.401-0.5-2.101c-0.594-2.544-1.126-5.107-1.595-7.692
		c-0.115-0.618-0.229-1.246-0.334-1.874c-0.344-1.988-0.657-3.995-0.928-6.014c-0.115-0.824-0.229-1.637-0.323-2.461
		c-0.01-0.051-0.021-0.103-0.021-0.155c-0.094-0.731-0.177-1.462-0.25-2.193c-0.115-0.999-0.219-2.008-0.302-3.017
		c-0.084-0.834-0.156-1.678-0.219-2.523c-0.01-0.155-0.021-0.309-0.031-0.474c-0.063-0.772-0.115-1.554-0.156-2.327
		c-0.063-0.875-0.105-1.75-0.145-2.625c-0.031-0.577-0.052-1.153-0.063-1.73c-0.031-0.577-0.052-1.164-0.063-1.75
		c-0.021-0.659-0.031-1.318-0.042-1.977c-0.01-0.896-0.021-1.801-0.021-2.708c0-38.933,12.748-74.909,34.347-104.111h289.086
		C540.012,404.159,552.761,440.136,552.761,479.068z"/>
	<path fill="#152C49" d="M278.518,528.102c6.411,42.547-21.41,46.758-63.961,31.436c-0.334-0.638-0.657-1.287-0.98-1.935
		c-0.302-0.587-0.594-1.173-0.886-1.771c-0.031-0.072-0.073-0.144-0.105-0.217c-0.302-0.618-0.605-1.246-0.897-1.874
		c-0.302-0.649-0.605-1.297-0.907-1.956c-0.365-0.792-0.72-1.586-1.063-2.378c-0.49-1.092-0.959-2.182-1.407-3.274
		c-0.594-1.42-1.167-2.852-1.709-4.283c-0.198-0.515-0.396-1.019-0.584-1.535c-0.376-1.009-0.75-2.018-1.105-3.027
		c-0.323-0.917-0.636-1.833-0.938-2.75c-0.334-0.968-0.646-1.946-0.949-2.925c-0.208-0.638-0.407-1.287-0.605-1.935
		c-0.021-0.083-0.052-0.164-0.073-0.257c-0.156-0.515-0.313-1.03-0.458-1.545c-0.166-0.577-0.334-1.154-0.49-1.73
		c-0.24-0.834-0.458-1.668-0.678-2.502c-0.187-0.69-0.365-1.369-0.531-2.059c-0.073-0.298-0.145-0.598-0.219-0.896
		c-0.177-0.7-0.334-1.401-0.5-2.101c-0.594-2.544-1.126-5.107-1.595-7.692c-0.115-0.618-0.229-1.246-0.334-1.874
		c-0.344-1.988-0.657-3.995-0.928-6.014c-0.115-0.824-0.229-1.637-0.323-2.461c-0.01-0.051-0.021-0.103-0.021-0.155
		c-0.094-0.731-0.177-1.462-0.25-2.193c-0.115-0.999-0.219-2.008-0.302-3.017c-0.084-0.834-0.156-1.678-0.219-2.523
		c-0.01-0.155-0.021-0.309-0.031-0.473c-0.063-0.772-0.115-1.554-0.156-2.327c-0.063-0.875-0.105-1.75-0.145-2.625
		c-0.031-0.577-0.052-1.153-0.063-1.73c-0.031-0.577-0.052-1.164-0.063-1.75c-0.021-0.659-0.031-1.318-0.042-1.977
		c-0.01-0.896-0.021-1.801-0.021-2.708c0-38.933,12.748-74.909,34.347-104.111h72.571
		C283.178,409.319,268.229,459.824,278.518,528.102z"/>
	<path fill="#25C2CE" d="M322.069,655.783H78.306c-27.508,0-44.698-29.408-30.948-52.946l75.083-128.464l29.719-50.846V286.334
		h96.046v137.195l29.719,50.846l75.083,128.464C366.767,626.376,349.578,655.783,322.069,655.783z"/>
	<path fill="#19A2A5" d="M176.504,300.336v123.191l-14.656,50.846l-37.014,128.464c-6.786,23.538,1.688,52.946,15.26,52.946H78.312
		c-27.508,0-44.698-29.408-30.948-52.946l75.083-128.464l29.719-50.846V290.039L176.504,300.336z"/>
	<path fill="#ED3B72" d="M322.069,655.783H78.306c-27.508,0-44.698-29.408-30.948-52.946l75.073-128.453l0.021-0.01h155.472
		l75.083,128.464C366.767,626.376,349.578,655.783,322.069,655.783z"/>
	<path fill="#CE2562" d="M140.099,655.783H78.306c-27.508,0-44.698-29.408-30.948-52.946l75.073-128.453l0.021-0.01h39.402
		l-37.015,128.463C118.053,626.376,126.528,655.783,140.099,655.783z"/>
	<path fill="#25C2CE" d="M517.08,339.897v268.449c0,13.098-5.378,24.96-14.061,33.547c-8.693,8.587-20.692,13.89-33.961,13.89
		c-26.519,0-48.022-21.232-48.022-47.437v-268.45L517.08,339.897L517.08,339.897z"/>
	<path fill="#19A2A5" d="M451.28,608.346V345.044l-30.243-5.149v268.449c0,26.205,21.505,47.437,48.022,47.437
		c5.289,0,10.369-0.854,15.126-2.412C465.075,647.114,451.28,629.331,451.28,608.346z"/>
	<path fill="#F4E662" d="M517.08,420.263v188.082c0,13.098-5.378,24.96-14.061,33.547c-5.243,5.179-11.685,9.164-18.888,11.502
		c-4.733,1.554-9.798,2.389-15.073,2.389c-26.519,0-48.022-21.232-48.022-47.437V420.263H517.08L517.08,420.263z"/>
	<path fill="#D8C74C" d="M484.182,653.374c-0.021,0.01-0.031,0.01-0.052,0.021c-4.733,1.554-9.798,2.389-15.073,2.389
		c-26.519,0-48.022-21.232-48.022-47.437V420.264h30.25v188.082C451.283,629.331,465.075,647.114,484.182,653.374z"/>
	<path fill="#F97AA8" d="M190.808,555.668c-6.943,0-10.425-8.732-5.302-13.391c2.424-2.204,6.075-2.669,8.986-1.143
		c2.945,1.544,4.58,4.889,4.018,8.128C197.876,552.92,194.565,555.668,190.808,555.668z"/>
	<g>
		<path fill="#FCF2AC" d="M451.406,506.243c-6.875,0-10.409-8.576-5.413-13.285c2.426-2.287,6.13-2.804,9.098-1.248
			c2.833,1.485,4.449,4.621,4.073,7.757C458.704,503.29,455.294,506.243,451.406,506.243z"/>
		<path fill="#FCF2AC" d="M478.122,588.618c-3.206,0-6.135-1.996-7.293-4.944c-1.228-3.125-0.205-6.763,2.449-8.843
			c5.567-4.362,13.916,0.692,12.506,7.577C485.055,585.969,481.804,588.618,478.122,588.618z"/>
		<path fill="#FCF2AC" d="M476.621,473.293c-3.27,0-6.256-2.085-7.363-5.121c-1.125-3.087-0.079-6.632,2.517-8.666
			c5.639-4.417,14.076,0.832,12.463,7.76C483.43,470.741,480.249,473.293,476.621,473.293z"/>
	</g>
	<g>
		<path fill="#F97AA8" d="M249.182,533.9c-6.943,0-10.424-8.733-5.302-13.391c2.424-2.204,6.075-2.668,8.986-1.143
			c2.948,1.544,4.581,4.896,4.018,8.135C256.251,531.153,252.929,533.9,249.182,533.9z"/>
		<path fill="#F97AA8" d="M238.758,581.513c-6.91,0-10.377-8.635-5.387-13.319c2.526-2.371,6.417-2.78,9.408-1.03
			c2.636,1.544,4.1,4.577,3.737,7.569C246.052,578.552,242.648,581.513,238.758,581.513z"/>
	</g>
	<path fill="#25C2CE" d="M418.609,186.106h-89.478c-15.415,0-27.91,12.344-27.91,27.57l0,0c0,15.227,12.496,27.57,27.91,27.57
		h89.478c15.415,0,27.91-12.344,27.91-27.57l0,0C446.519,198.45,434.023,186.106,418.609,186.106z"/>
	<path fill="#19A2A5" d="M335.62,213.677L335.62,213.677c0-15.227,12.496-27.57,27.91-27.57h-34.398
		c-15.415,0-27.91,12.344-27.91,27.57l0,0c0,15.227,12.496,27.57,27.91,27.57h34.398C348.116,241.246,335.62,228.903,335.62,213.677
		z"/>
	<path fill="#25C2CE" d="M241.562,249.335H158.81c-14.256,0-25.813,11.416-25.813,25.498l0,0c0,14.082,11.557,25.498,25.813,25.498
		h82.752c14.256,0,25.813-11.416,25.813-25.498l0,0C267.375,260.751,255.818,249.335,241.562,249.335z"/>
	<path fill="#19A2A5" d="M174.12,274.834L174.12,274.834c0-14.082,11.557-25.498,25.813-25.498H158.81
		c-14.256,0-25.813,11.416-25.813,25.498l0,0c0,14.082,11.557,25.498,25.813,25.498h41.122
		C185.676,300.332,174.12,288.916,174.12,274.834z"/>
	<path fill="#25C2CE" d="M510.435,294.051h-82.753c-14.256,0-25.813,11.416-25.813,25.498l0,0c0,14.082,11.557,25.498,25.813,25.498
		h82.752c14.256,0,25.813-11.416,25.813-25.498l0,0C536.247,305.468,524.69,294.051,510.435,294.051z"/>
	<path fill="#19A2A5" d="M442.992,319.55L442.992,319.55c0-14.082,11.557-25.498,25.813-25.498h-41.123
		c-14.256,0-25.813,11.416-25.813,25.498l0,0c0,14.082,11.557,25.498,25.813,25.498h41.122
		C454.548,345.048,442.992,333.632,442.992,319.55z"/>
</g>
</svg>
